<svg width="56" height="56" viewBox="0 0 56 56" fill="none" xmlns="http://www.w3.org/2000/svg">
<path d="M31.2237 40.9702H26.66C19.564 40.9702 13.8154 35.2215 13.8154 28.1256C13.8154 22.8142 17.0389 18.2576 21.6378 16.3037L18.5201 8.29081C10.4367 11.2533 4.66683 19.0194 4.66683 28.1256C4.66683 39.7922 14.1257 49.2511 25.7924 49.2511L34.4472 49.2511L31.2237 40.9702ZM26.2861 15.3021C26.4131 15.295 26.533 15.2809 26.66 15.2809L42.185 15.2809L37.1416 28.1256L42.185 40.9702H36.267L39.4834 49.2511H51.3335V39.2632L46.2902 27.8082L51.3335 16.3531V7L25.7994 7C24.8966 7 24.0078 7.06348 23.1332 7.17634L26.2861 15.3021V15.3021Z" stroke="url(#paint0_linear_71_574)" stroke-width="3"/>
<defs>
<linearGradient id="paint0_linear_71_574" x1="4.66677" y1="7.00006" x2="59.1145" y2="19.3431" gradientUnits="userSpaceOnUse">
<stop stop-color="#B843FF"/>
<stop offset="0.513258" stop-color="#3BCEEE"/>
<stop offset="1" stop-color="#32D723"/>
</linearGradient>
</defs>
</svg>
