<svg width="110" height="24" viewBox="0 0 110 24" fill="none" xmlns="http://www.w3.org/2000/svg">
<path d="M0 0L11.6193 8.57673L23.2386 0L23.305 23.5294H0.0663961L0 0Z" fill="#ffffff"/>
<path d="M38.6865 0V23.5294H26.5679V0H38.6865Z" fill="#ffffff"/>
<path d="M54.1844 0C55.6633 0 56.9967 0.330532 58.1843 0.991594C59.372 1.65266 60.3019 2.5154 60.9742 3.57982C61.6465 4.64425 61.9826 5.75909 61.9826 6.92435C61.9826 8.44816 61.456 9.78149 60.4028 10.9243C61.2543 11.5518 61.8873 12.2857 62.3019 13.126C62.7165 13.9664 62.9237 14.8571 62.9237 15.7983C62.9237 17.0756 62.5484 18.3081 61.7977 19.4958C61.047 20.6834 59.977 21.6526 58.5877 22.4033C57.1983 23.154 55.6073 23.5294 53.8146 23.5294H41.9492V0H54.1844Z" fill="#ffffff"/>
<path d="M75.2751 0.470581L88.559 23.5294H61.9912L75.2751 0.470581Z" fill="#ffffff"/>
<path d="M98.3473 0.470581C100.451 0.470581 102.398 0.996259 104.189 2.04762C105.98 3.09897 107.397 4.52882 108.438 6.33715C109.479 8.14548 110 10.1115 110 12.2353C110 14.359 109.479 16.325 108.438 18.1334C107.397 19.9417 105.98 21.3715 104.189 22.4229C102.398 23.4743 100.451 23.9999 98.3473 23.9999C96.2438 23.9999 94.2966 23.4743 92.5055 22.4229C90.7144 21.3715 89.2982 19.9417 88.2568 18.1334C87.2155 16.325 86.6948 14.359 86.6948 12.2353C86.6948 10.1115 87.2155 8.14548 88.2568 6.33715C89.2982 4.52882 90.7144 3.09897 92.5055 2.04762C94.2966 0.996259 96.2438 0.470581 98.3473 0.470581Z" fill="#ffffff"/>
</svg>
