<svg id="SvgjsSvg1006" width="814.7500152587891" height="469.1160888671875" xmlns="http://www.w3.org/2000/svg" version="1.1" xmlns:xlink="http://www.w3.org/1999/xlink" xmlns:svgjs="http://svgjs.com/svgjs"><defs id="SvgjsDefs1007"><marker id="SvgjsMarker1044" markerWidth="14" markerHeight="10" refX="4" refY="5" viewBox="0 0 14 10" orient="auto" markerUnits="userSpaceOnUse" stroke-dasharray="0,0"><path id="SvgjsPath1045" d="M14,0 L0,5 L14,10 L14,0" fill="#4caf50" stroke="#4caf50" stroke-width="1"></path></marker><marker id="SvgjsMarker1063" markerWidth="14" markerHeight="10" refX="4" refY="5" viewBox="0 0 14 10" orient="auto" markerUnits="userSpaceOnUse" stroke-dasharray="0,0"><path id="SvgjsPath1064" d="M14,0 L0,5 L14,10 L14,0" fill="#1976d2" stroke="#1976d2" stroke-width="1"></path></marker><marker id="SvgjsMarker1088" markerWidth="14" markerHeight="10" refX="10" refY="5" viewBox="0 0 14 10" orient="auto" markerUnits="userSpaceOnUse" stroke-dasharray="0,0"><path id="SvgjsPath1089" d="M0,0 L14,5 L0,10 L0,0" fill="#4caf50" stroke="#4caf50" stroke-width="1"></path></marker><marker id="SvgjsMarker1092" markerWidth="14" markerHeight="10" refX="10" refY="5" viewBox="0 0 14 10" orient="auto" markerUnits="userSpaceOnUse" stroke-dasharray="0,0"><path id="SvgjsPath1093" d="M0,0 L14,5 L0,10 L0,0" fill="#1976d2" stroke="#1976d2" stroke-width="1"></path></marker><marker id="SvgjsMarker1102" markerWidth="14" markerHeight="10" refX="10" refY="5" viewBox="0 0 14 10" orient="auto" markerUnits="userSpaceOnUse" stroke-dasharray="0,0"><path id="SvgjsPath1103" d="M0,0 L14,5 L0,10 L0,0" fill="#1976d2" stroke="#1976d2" stroke-width="1"></path></marker><marker id="SvgjsMarker1106" markerWidth="14" markerHeight="10" refX="10" refY="5" viewBox="0 0 14 10" orient="auto" markerUnits="userSpaceOnUse" stroke-dasharray="0,0"><path id="SvgjsPath1107" d="M0,0 L14,5 L0,10 L0,0" fill="#1976d2" stroke="#1976d2" stroke-width="1"></path></marker><marker id="SvgjsMarker1110" markerWidth="14" markerHeight="10" refX="10" refY="5" viewBox="0 0 14 10" orient="auto" markerUnits="userSpaceOnUse" stroke-dasharray="0,0"><path id="SvgjsPath1111" d="M0,0 L14,5 L0,10 L0,0" fill="#1976d2" stroke="#1976d2" stroke-width="1"></path></marker></defs><g id="SvgjsG1008" transform="translate(195.00000762939453,342.9605513382578)"><path id="SvgjsPath1009" d="M 0 4Q 0 0 4 0L 550 0Q 554 0 554 4L 554 74.57458563535897Q 554 78.57458563535897 550 78.57458563535897L 4 78.57458563535897Q 0 78.57458563535897 0 74.57458563535897Z" stroke="none" fill-opacity="1" fill="#4caf50"></path><g id="SvgjsG1010"><text id="SvgjsText1011" font-family="微软雅黑" text-anchor="middle" font-size="17px" width="534px" fill="#f5f5f5" font-weight="400" align="middle" lineHeight="125%" anchor="middle" family="微软雅黑" size="17px" weight="400" font-style="" opacity="1" y="24.662292817679486" transform="rotate(0)"><tspan id="SvgjsTspan1012" dy="21" x="277"><tspan id="SvgjsTspan1013" style="text-decoration:;">Nervos CKB (CoTA smart contract)</tspan></tspan></text></g></g><g id="SvgjsG1014" transform="translate(70.04762013753248,358.61957734773296)"><path id="SvgjsPath1015" d="M 0 0L 113.28572082519531 0L 113.28572082519531 43L 0 43Z" stroke="none" fill="none"></path><g id="SvgjsG1016"><text id="SvgjsText1017" font-family="微软雅黑" text-anchor="middle" font-size="18px" width="114px" fill="#4caf50" font-weight="700" align="middle" lineHeight="125%" anchor="middle" family="微软雅黑" size="18px" weight="700" font-style="" opacity="1" y="5.75" transform="rotate(0)"><tspan id="SvgjsTspan1018" dy="22" x="57"><tspan id="SvgjsTspan1019" style="text-decoration:;">Blockchain</tspan></tspan></text></g></g><g id="SvgjsG1020" transform="translate(98.75000762939453,423.12324903880267)"><path id="SvgjsPath1021" d="M 0 10.5L 691 10.5" stroke-dasharray="10,6" stroke="rgba(136,136,136,1)" stroke-width="1" fill="none"></path><path id="SvgjsPath1022" d="M 0 0L 691 0L 691 21L 0 21Z" stroke="none" fill="none"></path></g><g id="SvgjsG1023" transform="translate(75.6309534708659,208.43748283386242)"><path id="SvgjsPath1024" d="M 0 0L 95 0L 95 43L 0 43Z" stroke="none" fill="none"></path><g id="SvgjsG1025"><text id="SvgjsText1026" font-family="微软雅黑" text-anchor="middle" font-size="18px" width="95px" fill="#1976d2" font-weight="700" align="middle" lineHeight="125%" anchor="middle" family="微软雅黑" size="18px" weight="700" font-style="" opacity="1" y="5.75" transform="rotate(0)"><tspan id="SvgjsTspan1027" dy="22" x="47.5"><tspan id="SvgjsTspan1028" style="text-decoration:;">Off-c</tspan><tspan id="SvgjsTspan1029" style="text-decoration:;font-size: inherit;">hain</tspan></tspan></text></g></g><g id="SvgjsG1030" transform="translate(512.5714263916016,233.4374828338623)"><path id="SvgjsPath1031" d="M 0 4Q 0 0 4 0L 142.17858123779297 0Q 146.17858123779297 0 146.17858123779297 4L 146.17858123779297 53.99999999999977Q 146.17858123779297 57.99999999999977 142.17858123779297 57.99999999999977L 4 57.99999999999977Q 0 57.99999999999977 0 53.99999999999977Z" stroke="none" fill-opacity="1" fill="#1976d2"></path><g id="SvgjsG1032"><text id="SvgjsText1033" font-family="微软雅黑" text-anchor="middle" font-size="13px" width="127px" fill="#f5f5f5" font-weight="400" align="middle" lineHeight="125%" anchor="middle" family="微软雅黑" size="13px" weight="400" font-style="" opacity="1" y="18.374999999999886" transform="rotate(0)"><tspan id="SvgjsTspan1034" dy="16" x="73.5"><tspan id="SvgjsTspan1035" style="text-decoration:;">CoTA Syncer</tspan></tspan></text></g></g><g id="SvgjsG1036" transform="translate(195.00000762939447,54.937482833862305)"><path id="SvgjsPath1037" d="M 0 4Q 0 0 4 0L 123.82141876220703 0Q 127.82141876220703 0 127.82141876220703 4L 127.82141876220703 142.10713958740212Q 127.82141876220703 146.10713958740212 123.82141876220703 146.10713958740212L 4 146.10713958740212Q 0 146.10713958740212 0 142.10713958740212Z" stroke="none" fill-opacity="1" fill="#1976d2"></path><g id="SvgjsG1038"><text id="SvgjsText1039" font-family="微软雅黑" text-anchor="middle" font-size="13px" width="108px" fill="#f5f5f5" font-weight="400" align="middle" lineHeight="125%" anchor="middle" family="微软雅黑" size="13px" weight="400" font-style="" opacity="1" y="62.42856979370106" transform="rotate(0)"><tspan id="SvgjsTspan1040" dy="16" x="64"><tspan id="SvgjsTspan1041" style="text-decoration:;">CoTA SDK</tspan></tspan></text></g></g><g id="SvgjsG1042"><path id="SvgjsPath1043" d="M585.660717010498 294.0374828338621L585.660717010498 317.54462242126453L585.660717010498 317.54462242126453L585.660717010498 343.651762008667" stroke="#4caf50" stroke-width="2" fill="none" marker-start="url(#SvgjsMarker1044)"></path></g><g id="SvgjsG1046" transform="translate(98.75000762939453,316.11590565666313)"><path id="SvgjsPath1047" d="M 0 10.5L 691 10.5" stroke-dasharray="10,6" stroke="rgba(136,136,136,1)" stroke-width="1" fill="none"></path><path id="SvgjsPath1048" d="M 0 0L 691 0L 691 21L 0 21Z" stroke="none" fill="none"></path></g><g id="SvgjsG1049" transform="translate(512.5714263916016,145.33034324645973)"><path id="SvgjsPath1050" d="M 0 4Q 0 0 4 0L 142.17858123779297 0Q 146.17858123779297 0 146.17858123779297 4L 146.17858123779297 51.71427917480469Q 146.17858123779297 55.71427917480469 142.17858123779297 55.71427917480469L 4 55.71427917480469Q 0 55.71427917480469 0 51.71427917480469Z" stroke="none" fill-opacity="1" fill="#1976d2"></path><g id="SvgjsG1051"><text id="SvgjsText1052" font-family="微软雅黑" text-anchor="middle" font-size="13px" width="127px" fill="#f5f5f5" font-weight="400" align="middle" lineHeight="125%" anchor="middle" family="微软雅黑" size="13px" weight="400" font-style="" opacity="1" y="17.232139587402344" transform="rotate(0)"><tspan id="SvgjsTspan1053" dy="16" x="73.5"><tspan id="SvgjsTspan1054" style="text-decoration:;">CoTA Aggregator</tspan></tspan></text></g></g><g id="SvgjsG1055" transform="translate(707.8214263916016,54.93748283386208)"><path id="SvgjsPath1056" d="M 0 4Q 0 0 4 0L 37.17858123779297 0Q 41.17858123779297 0 41.17858123779297 4L 41.17858123779297 232.5Q 41.17858123779297 236.5 37.17858123779297 236.5L 4 236.5Q 0 236.5 0 232.5Z" stroke="none" fill-opacity="1" fill="#1976d2"></path><g id="SvgjsG1057"><text id="SvgjsText1058" font-family="微软雅黑" text-anchor="middle" font-size="13px" width="22px" fill="#f5f5f5" font-weight="400" align="middle" lineHeight="125%" anchor="middle" family="微软雅黑" size="13px" weight="400" font-style="" opacity="1" y="107.625" transform="rotate(0)"><tspan id="SvgjsTspan1059" dy="16" x="21"><tspan id="SvgjsTspan1060" style="text-decoration:;">DB</tspan></tspan></text></g></g><g id="SvgjsG1061"><path id="SvgjsPath1062" d="M705.9714263916015 262.43748283386196L683.660717010498 262.43748283386196L683.660717010498 262.4374828338622L658.7500076293945 262.4374828338622" stroke="#1976d2" stroke-width="2" fill="none" marker-start="url(#SvgjsMarker1063)"></path></g><g id="SvgjsG1065" transform="translate(157.910717010498,250.9374828338622)"><path id="SvgjsPath1066" d="M 0 0L 202 0L 202 23L 0 23Z" stroke="none" fill="none"></path><g id="SvgjsG1067"><text id="SvgjsText1068" font-family="微软雅黑" text-anchor="middle" font-size="13px" width="202px" fill="#1976d2" font-weight="700" align="middle" lineHeight="125%" anchor="middle" family="微软雅黑" size="13px" weight="700" font-style="" opacity="1" y="0.875" transform="rotate(0)"><tspan id="SvgjsTspan1069" dy="16" x="101"><tspan id="SvgjsTspan1070" style="text-decoration:;">Build, sign and send tx to CKB</tspan></tspan></text></g></g><g id="SvgjsG1071" transform="translate(587.7500076293945,305.69901708606005)"><path id="SvgjsPath1072" d="M 0 0L 202 0L 202 23L 0 23Z" stroke="none" fill="none"></path><g id="SvgjsG1073"><text id="SvgjsText1074" font-family="微软雅黑" text-anchor="middle" font-size="13px" width="202px" fill="#4caf50" font-weight="700" align="middle" lineHeight="125%" anchor="middle" family="微软雅黑" size="13px" weight="700" font-style="" opacity="1" y="0.875" transform="rotate(0)"><tspan id="SvgjsTspan1075" dy="16" x="101"><tspan id="SvgjsTspan1076" style="text-decoration:;">Indexer CoTA data from CKB</tspan></tspan></text></g></g><g id="SvgjsG1077" transform="translate(259.91072845458984,115.56842867533362)"><path id="SvgjsPath1078" d="M 0 0L 316.9642791748047 0L 316.9642791748047 71.28572082519531L 0 71.28572082519531Z" stroke="none" fill="none"></path><g id="SvgjsG1079"><text id="SvgjsText1080" font-family="微软雅黑" text-anchor="middle" font-size="13px" width="317px" fill="#1976d2" font-weight="700" align="middle" lineHeight="150%" anchor="middle" family="微软雅黑" size="13px" weight="700" font-style="" opacity="1" y="11.892860412597656" transform="rotate(0)"><tspan id="SvgjsTspan1081" dy="19" x="158.5"><tspan id="SvgjsTspan1082" style="text-decoration:;">Generate CoTA SMT data </tspan></tspan><tspan id="SvgjsTspan1083" dy="19" x="158.5"><tspan id="SvgjsTspan1084" style="text-decoration:;">and </tspan><tspan id="SvgjsTspan1085" style="text-decoration:;font-size: inherit;">query CoTA NFTs</tspan></tspan></text></g></g><g id="SvgjsG1086"><path id="SvgjsPath1087" d="M258.910717010498 201.04462242126442L258.910717010498 272.3175836290631L258.91071701049805 272.3175836290631L258.91071701049805 340.9905448368618" stroke="#4caf50" stroke-width="2" fill="none" marker-end="url(#SvgjsMarker1088)"></path></g><g id="SvgjsG1090"><path id="SvgjsPath1091" d="M512.5714263916016 173.18748283386208L417.57142639160156 173.18748283386208L417.57142639160156 173.18748283386208L325.1714263916016 173.18748283386208" stroke="#1976d2" stroke-width="2" fill="none" marker-end="url(#SvgjsMarker1092)"></path></g><g id="SvgjsG1094" transform="translate(512.5714263916016,54.937482833862305)"><path id="SvgjsPath1095" d="M 0 4Q 0 0 4 0L 142.17858123779297 0Q 146.17858123779297 0 146.17858123779297 4L 146.17858123779297 49.71427917480469Q 146.17858123779297 53.71427917480469 142.17858123779297 53.71427917480469L 4 53.71427917480469Q 0 53.71427917480469 0 49.71427917480469Z" stroke="none" fill-opacity="1" fill="#1976d2"></path><g id="SvgjsG1096"><text id="SvgjsText1097" font-family="微软雅黑" text-anchor="middle" font-size="13px" width="127px" fill="#f5f5f5" font-weight="400" align="middle" lineHeight="125%" anchor="middle" family="微软雅黑" size="13px" weight="400" font-style="" opacity="1" y="16.232139587402344" transform="rotate(0)"><tspan id="SvgjsTspan1098" dy="16" x="73.5"><tspan id="SvgjsTspan1099" style="text-decoration:;">Registry Aggregator</tspan></tspan></text></g></g><g id="SvgjsG1100"><path id="SvgjsPath1101" d="M709.8214263916016 81.79462242126465L684.285717010498 81.79462242126465L684.285717010498 81.79462242126465L661.3500076293946 81.79462242126465" stroke="#1976d2" stroke-width="2" fill="none" marker-end="url(#SvgjsMarker1102)"></path></g><g id="SvgjsG1104"><path id="SvgjsPath1105" d="M707.8214263916016 173.18748283386208L683.285717010498 173.18748283386208L683.285717010498 173.18748283386208L661.3500076293946 173.18748283386208" stroke="#1976d2" stroke-width="2" fill="none" marker-end="url(#SvgjsMarker1106)"></path></g><g id="SvgjsG1108"><path id="SvgjsPath1109" d="M512.5714263916016 81.79462242126465L417.6250014305115 81.79462242126465L417.6250014305115 81.79462242126465L325.2785764694214 81.79462242126465" stroke="#1976d2" stroke-width="2" fill="none" marker-end="url(#SvgjsMarker1110)"></path></g><g id="SvgjsG1112" transform="translate(259.91072845458984,25.003693504271098)"><path id="SvgjsPath1113" d="M 0 0L 316.9642791748047 0L 316.9642791748047 71.28572082519531L 0 71.28572082519531Z" stroke="none" fill="none"></path><g id="SvgjsG1114"><text id="SvgjsText1115" font-family="微软雅黑" text-anchor="middle" font-size="13px" width="317px" fill="#1976d2" font-weight="700" align="middle" lineHeight="150%" anchor="middle" family="微软雅黑" size="13px" weight="700" font-style="" opacity="1" y="21.392860412597656" transform="rotate(0)"><tspan id="SvgjsTspan1116" dy="19" x="158.5"><tspan id="SvgjsTspan1117" style="text-decoration:;">Generate registry SMT data</tspan></tspan></text></g></g><g id="SvgjsG1118" transform="translate(25.000007629394545,82.0887216533248)"><path id="SvgjsPath1119" d="M 0 0L 165.83333333333334 0L 165.83333333333334 66.82495142966269L 0 66.82495142966269Z" stroke="none" fill="none"></path><g id="SvgjsG1120"><text id="SvgjsText1121" font-family="微软雅黑" text-anchor="start" font-size="12px" width="166px" fill="#1976d2" font-weight="400" align="middle" lineHeight="200%" anchor="start" family="微软雅黑" size="12px" weight="400" font-style="" opacity="1" y="-9.587524285168655" transform="rotate(0)"><tspan id="SvgjsTspan1122" dy="24" x="0"><tspan id="SvgjsTspan1123" style="text-decoration:;">1. Register cota cells</tspan></tspan><tspan id="SvgjsTspan1124" dy="24" x="0"><tspan id="SvgjsTspan1125" style="text-decoration:;">2. Define/Mint/Transfer NFTs</tspan></tspan><tspan id="SvgjsTspan1126" dy="24" x="0"><tspan id="SvgjsTspan1127" style="text-decoration:;">3. Query sepcific NFTs info</tspan></tspan></text></g></g></svg>