<svg id="SvgjsSvg1250" width="769.7053680419922" height="395.4642639160156" xmlns="http://www.w3.org/2000/svg" version="1.1" xmlns:xlink="http://www.w3.org/1999/xlink" xmlns:svgjs="http://svgjs.com/svgjs"><defs id="SvgjsDefs1251"><marker id="SvgjsMarker1288" markerWidth="14" markerHeight="10" refX="4" refY="5" viewBox="0 0 14 10" orient="auto" markerUnits="userSpaceOnUse" stroke-dasharray="0,0"><path id="SvgjsPath1289" d="M14,0 L0,5 L14,10 L14,0" fill="#4caf50" stroke="#4caf50" stroke-width="1"></path></marker><marker id="SvgjsMarker1307" markerWidth="14" markerHeight="10" refX="4" refY="5" viewBox="0 0 14 10" orient="auto" markerUnits="userSpaceOnUse" stroke-dasharray="0,0"><path id="SvgjsPath1308" d="M14,0 L0,5 L14,10 L14,0" fill="#1976d2" stroke="#1976d2" stroke-width="1"></path></marker><marker id="SvgjsMarker1311" markerWidth="14" markerHeight="10" refX="10" refY="5" viewBox="0 0 14 10" orient="auto" markerUnits="userSpaceOnUse" stroke-dasharray="0,0"><path id="SvgjsPath1312" d="M0,0 L14,5 L0,10 L0,0" fill="#1976d2" stroke="#1976d2" stroke-width="1"></path></marker><marker id="SvgjsMarker1336" markerWidth="14" markerHeight="10" refX="10" refY="5" viewBox="0 0 14 10" orient="auto" markerUnits="userSpaceOnUse" stroke-dasharray="0,0"><path id="SvgjsPath1337" d="M0,0 L14,5 L0,10 L0,0" fill="#4caf50" stroke="#4caf50" stroke-width="1"></path></marker><marker id="SvgjsMarker1340" markerWidth="14" markerHeight="10" refX="10" refY="5" viewBox="0 0 14 10" orient="auto" markerUnits="userSpaceOnUse" stroke-dasharray="0,0"><path id="SvgjsPath1341" d="M0,0 L14,5 L0,10 L0,0" fill="#1976d2" stroke="#1976d2" stroke-width="1"></path></marker></defs><g id="SvgjsG1252" transform="translate(149.9553565979004,269.3087549973154)"><path id="SvgjsPath1253" d="M 0 4Q 0 0 4 0L 550 0Q 554 0 554 4L 554 74.57458563535897Q 554 78.57458563535897 550 78.57458563535897L 4 78.57458563535897Q 0 78.57458563535897 0 74.57458563535897Z" stroke="none" fill-opacity="1" fill="#4caf50"></path><g id="SvgjsG1254"><text id="SvgjsText1255" font-family="微软雅黑" text-anchor="middle" font-size="17px" width="534px" fill="#f5f5f5" font-weight="400" align="middle" lineHeight="125%" anchor="middle" family="微软雅黑" size="17px" weight="400" font-style="" opacity="1" y="24.662292817679486" transform="rotate(0)"><tspan id="SvgjsTspan1256" dy="21" x="277"><tspan id="SvgjsTspan1257" style="text-decoration:;">Nervos CKB (CoTA smart contract)</tspan></tspan></text></g></g><g id="SvgjsG1258" transform="translate(25.002969106038336,284.9677810067906)"><path id="SvgjsPath1259" d="M 0 0L 113.28572082519531 0L 113.28572082519531 43L 0 43Z" stroke="none" fill="none"></path><g id="SvgjsG1260"><text id="SvgjsText1261" font-family="微软雅黑" text-anchor="middle" font-size="18px" width="114px" fill="#4caf50" font-weight="700" align="middle" lineHeight="125%" anchor="middle" family="微软雅黑" size="18px" weight="700" font-style="" opacity="1" y="5.75" transform="rotate(0)"><tspan id="SvgjsTspan1262" dy="22" x="57"><tspan id="SvgjsTspan1263" style="text-decoration:;">Blockchain</tspan></tspan></text></g></g><g id="SvgjsG1264" transform="translate(53.70535659790039,349.4714526978603)"><path id="SvgjsPath1265" d="M 0 10.5L 691 10.5" stroke-dasharray="10,6" stroke="rgba(136,136,136,1)" stroke-width="1" fill="none"></path><path id="SvgjsPath1266" d="M 0 0L 691 0L 691 21L 0 21Z" stroke="none" fill="none"></path></g><g id="SvgjsG1267" transform="translate(30.586302439371764,134.78568649292004)"><path id="SvgjsPath1268" d="M 0 0L 95 0L 95 43L 0 43Z" stroke="none" fill="none"></path><g id="SvgjsG1269"><text id="SvgjsText1270" font-family="微软雅黑" text-anchor="middle" font-size="18px" width="95px" fill="#1976d2" font-weight="700" align="middle" lineHeight="125%" anchor="middle" family="微软雅黑" size="18px" weight="700" font-style="" opacity="1" y="5.75" transform="rotate(0)"><tspan id="SvgjsTspan1271" dy="22" x="47.5"><tspan id="SvgjsTspan1272" style="text-decoration:;">Off-c</tspan><tspan id="SvgjsTspan1273" style="text-decoration:;font-size: inherit;">hain</tspan></tspan></text></g></g><g id="SvgjsG1274" transform="translate(479.4910774230957,159.78568649291992)"><path id="SvgjsPath1275" d="M 0 4Q 0 0 4 0L 130.2142791748047 0Q 134.2142791748047 0 134.2142791748047 4L 134.2142791748047 54Q 134.2142791748047 58 130.2142791748047 58L 4 58Q 0 58 0 54Z" stroke="none" fill-opacity="1" fill="#1976d2"></path><g id="SvgjsG1276"><text id="SvgjsText1277" font-family="微软雅黑" text-anchor="middle" font-size="13px" width="115px" fill="#f5f5f5" font-weight="400" align="middle" lineHeight="125%" anchor="middle" family="微软雅黑" size="13px" weight="400" font-style="" opacity="1" y="18.375" transform="rotate(0)"><tspan id="SvgjsTspan1278" dy="16" x="67.5"><tspan id="SvgjsTspan1279" style="text-decoration:;">CoTA Syncer</tspan></tspan></text></g></g><g id="SvgjsG1280" transform="translate(149.9553565979004,74.28568649291992)"><path id="SvgjsPath1281" d="M 0 4Q 0 0 4 0L 123.82141876220703 0Q 127.82141876220703 0 127.82141876220703 4L 127.82141876220703 51.71427917480469Q 127.82141876220703 55.71427917480469 123.82141876220703 55.71427917480469L 4 55.71427917480469Q 0 55.71427917480469 0 51.71427917480469Z" stroke="none" fill-opacity="1" fill="#1976d2"></path><g id="SvgjsG1282"><text id="SvgjsText1283" font-family="微软雅黑" text-anchor="middle" font-size="13px" width="108px" fill="#f5f5f5" font-weight="400" align="middle" lineHeight="125%" anchor="middle" family="微软雅黑" size="13px" weight="400" font-style="" opacity="1" y="17.232139587402344" transform="rotate(0)"><tspan id="SvgjsTspan1284" dy="16" x="64"><tspan id="SvgjsTspan1285" style="text-decoration:;">CoTA SDK</tspan></tspan></text></g></g><g id="SvgjsG1286"><path id="SvgjsPath1287" d="M546.598217010498 220.38568649291994L546.598217010498 244.23734395148335L546.598217010498 244.23734395148335L546.598217010498 270.6890014100468" stroke="#4caf50" stroke-width="2" fill="none" marker-start="url(#SvgjsMarker1288)"></path></g><g id="SvgjsG1290" transform="translate(53.70535659790039,242.46410931572075)"><path id="SvgjsPath1291" d="M 0 10.5L 691 10.5" stroke-dasharray="10,6" stroke="rgba(136,136,136,1)" stroke-width="1" fill="none"></path><path id="SvgjsPath1292" d="M 0 0L 691 0L 691 21L 0 21Z" stroke="none" fill="none"></path></g><g id="SvgjsG1293" transform="translate(479.4910774230957,74.28568649291992)"><path id="SvgjsPath1294" d="M 0 4Q 0 0 4 0L 130.2142791748047 0Q 134.2142791748047 0 134.2142791748047 4L 134.2142791748047 51.71427917480469Q 134.2142791748047 55.71427917480469 130.2142791748047 55.71427917480469L 4 55.71427917480469Q 0 55.71427917480469 0 51.71427917480469Z" stroke="none" fill-opacity="1" fill="#1976d2"></path><g id="SvgjsG1295"><text id="SvgjsText1296" font-family="微软雅黑" text-anchor="middle" font-size="13px" width="115px" fill="#f5f5f5" font-weight="400" align="middle" lineHeight="125%" anchor="middle" family="微软雅黑" size="13px" weight="400" font-style="" opacity="1" y="17.232139587402344" transform="rotate(0)"><tspan id="SvgjsTspan1297" dy="16" x="67.5"><tspan id="SvgjsTspan1298" style="text-decoration:;">Aggregator</tspan></tspan></text></g></g><g id="SvgjsG1299" transform="translate(662.7767753601074,74.28568649291992)"><path id="SvgjsPath1300" d="M 0 4Q 0 0 4 0L 37.17858123779297 0Q 41.17858123779297 0 41.17858123779297 4L 41.17858123779297 139.5Q 41.17858123779297 143.5 37.17858123779297 143.5L 4 143.5Q 0 143.5 0 139.5Z" stroke="none" fill-opacity="1" fill="#1976d2"></path><g id="SvgjsG1301"><text id="SvgjsText1302" font-family="微软雅黑" text-anchor="middle" font-size="13px" width="22px" fill="#f5f5f5" font-weight="400" align="middle" lineHeight="125%" anchor="middle" family="微软雅黑" size="13px" weight="400" font-style="" opacity="1" y="61.125" transform="rotate(0)"><tspan id="SvgjsTspan1303" dy="16" x="21"><tspan id="SvgjsTspan1304" style="text-decoration:;">DB</tspan></tspan></text></g></g><g id="SvgjsG1305"><path id="SvgjsPath1306" d="M660.9267753601074 188.78568649291992L638.6160659790039 188.78568649291992L638.6160659790039 188.78568649291992L613.7053565979004 188.78568649291992" stroke="#1976d2" stroke-width="2" fill="none" marker-start="url(#SvgjsMarker1307)"></path></g><g id="SvgjsG1309"><path id="SvgjsPath1310" d="M663.5267753601074 102.14282608032227L638.6160659790039 102.14282608032227L638.6160659790039 102.14282608032227L616.3053565979004 102.14282608032227" stroke="#1976d2" stroke-width="2" fill="none" marker-end="url(#SvgjsMarker1311)"></path></g><g id="SvgjsG1313" transform="translate(112.86606597900385,177.2856864929198)"><path id="SvgjsPath1314" d="M 0 0L 202 0L 202 23L 0 23Z" stroke="none" fill="none"></path><g id="SvgjsG1315"><text id="SvgjsText1316" font-family="微软雅黑" text-anchor="middle" font-size="13px" width="202px" fill="#1976d2" font-weight="700" align="middle" lineHeight="125%" anchor="middle" family="微软雅黑" size="13px" weight="700" font-style="" opacity="1" y="0.875" transform="rotate(0)"><tspan id="SvgjsTspan1317" dy="16" x="101"><tspan id="SvgjsTspan1318" style="text-decoration:;">Build, sign and send tx to CKB</tspan></tspan></text></g></g><g id="SvgjsG1319" transform="translate(542.7053565979004,232.04722074511767)"><path id="SvgjsPath1320" d="M 0 0L 202 0L 202 23L 0 23Z" stroke="none" fill="none"></path><g id="SvgjsG1321"><text id="SvgjsText1322" font-family="微软雅黑" text-anchor="middle" font-size="13px" width="202px" fill="#4caf50" font-weight="700" align="middle" lineHeight="125%" anchor="middle" family="微软雅黑" size="13px" weight="700" font-style="" opacity="1" y="0.875" transform="rotate(0)"><tspan id="SvgjsTspan1323" dy="16" x="101"><tspan id="SvgjsTspan1324" style="text-decoration:;">Indexer CoTA data from CKB</tspan></tspan></text></g></g><g id="SvgjsG1325" transform="translate(235.56249618530273,24.99996566772461)"><path id="SvgjsPath1326" d="M 0 0L 316.9642791748047 0L 316.9642791748047 71.28572082519531L 0 71.28572082519531Z" stroke="none" fill="none"></path><g id="SvgjsG1327"><text id="SvgjsText1328" font-family="微软雅黑" text-anchor="middle" font-size="13px" width="317px" fill="#1976d2" font-weight="700" align="middle" lineHeight="150%" anchor="middle" family="微软雅黑" size="13px" weight="700" font-style="" opacity="1" y="11.892860412597656" transform="rotate(0)"><tspan id="SvgjsTspan1329" dy="19" x="158.5"><tspan id="SvgjsTspan1330" style="text-decoration:;">Generate SMT data and </tspan><tspan id="SvgjsTspan1331" style="text-decoration:;font-size: inherit;">query CoTA NFTs </tspan></tspan><tspan id="SvgjsTspan1332" dy="19" x="158.5"><tspan id="SvgjsTspan1333" style="text-decoration:;font-size: inherit;">through RPC APIs</tspan></tspan></text></g></g><g id="SvgjsG1334"><path id="SvgjsPath1335" d="M213.8660659790039 129.9999656677246L213.8660659790039 199.969357081822L213.8660659790039 199.969357081822L213.8660659790039 267.3387484959194" stroke="#4caf50" stroke-width="2" fill="none" marker-end="url(#SvgjsMarker1336)"></path></g><g id="SvgjsG1338"><path id="SvgjsPath1339" d="M479.4910774230957 102.14282608032227L378.63392639160156 102.14282608032227L378.63392639160156 102.14282608032227L280.37677536010744 102.14282608032227" stroke="#1976d2" stroke-width="2" fill="none" marker-end="url(#SvgjsMarker1340)"></path></g></svg>